<?xml version="1.0" encoding="UTF-8"?>
<svg width="40px" height="40px" viewBox="0 0 40 40" version="1.1" xmlns="http://www.w3.org/2000/svg" xmlns:xlink="http://www.w3.org/1999/xlink">
    <!-- Generator: Sketch 63 (92445) - https://sketch.com -->
    <title>-mockplus-</title>
    <desc>Created with Sketch.</desc>
    <g id="Dashboard" stroke="none" stroke-width="1" fill="none" fill-rule="evenodd">
        <g id="图标" transform="translate(-478.000000, -49.000000)" fill-rule="nonzero">
            <g id="-mockplus-" transform="translate(478.000000, 49.000000)">
                <g id="icon-/40-/--ask">
                    <rect id="bg" fill-opacity="0" fill="#FFFFFF" x="0" y="0" width="40" height="40"></rect>
                    <g id="编组" transform="translate(10.000000, 10.000000)" fill="#9090A8">
                        <path d="M10.5,1.5 C11.7156563,1.5 12.8941406,1.73775 14.0027578,2.20664063 C15.0742969,2.65985156 16.0369453,3.309 16.8639609,4.13603906 C17.691,4.96305469 18.340125,5.92570313 18.7933594,6.99724219 C19.26225,8.10585938 19.5,9.28434375 19.5,10.5 C19.5,11.7156562 19.26225,12.8941406 18.7933594,14.0027578 C18.3401484,15.0742969 17.691,16.0369453 16.8639609,16.8639609 C16.0369453,17.691 15.0742969,18.340125 14.0027578,18.7933594 C12.8941406,19.26225 11.7156563,19.5 10.5,19.5 C9.28434375,19.5 8.10585938,19.26225 6.99724219,18.7933594 C5.92570313,18.3401484 4.96305469,17.691 4.13603906,16.8639609 C3.309,16.0369453 2.659875,15.0742969 2.20664062,14.0027578 C1.73775,12.8941406 1.5,11.7156563 1.5,10.5 C1.5,9.28434375 1.73775,8.10585938 2.20664063,6.99724219 C2.65985156,5.92570313 3.309,4.96305469 4.13603906,4.13603906 C4.96305469,3.309 5.92570313,2.659875 6.99724219,2.20664062 C8.10585938,1.73775 9.28434375,1.5 10.5,1.5 M10.5,0 C4.701,0 0,4.701 0,10.5 C0,16.299 4.701,21 10.5,21 C16.299,21 21,16.299 21,10.5 C21,4.701 16.299,0 10.5,0 Z" id="形状"></path>
                        <path d="M10.5,4.5 C8.671875,4.5 6.75,5.6953125 6.75,8.2265625 L6.75058594,8.2265625 C6.75035156,8.23436719 6.75,8.242125 6.75,8.25 C6.75,8.66421094 7.08578906,9 7.5,9 C7.91421094,9 8.25,8.66421094 8.25,8.25 C8.25,6.5625 9.5625,6 10.5,6 C11.390625,6 12.75,6.75 12.75,8.25 C12.75,9.609375 11.0859375,10.640625 10.5,11.25 C9.93142969,11.8413047 9.75,12.5390625 9.75,13.5 C9.75,13.9142109 10.0857891,14.25 10.5,14.25 C10.9142109,14.25 11.25,13.9142109 11.25,13.5 C11.25,12.5625 11.5078125,12.2578125 11.765625,12 C12.4222969,11.3433281 14.25,10.21875 14.25,8.25 C14.25,5.765625 12.375,4.5 10.5,4.5 Z M10.5,15 C9.88125,15 9.375,15.50625 9.375,16.125 C9.375,16.74375 9.88125,17.25 10.5,17.25 C11.11875,17.25 11.625,16.74375 11.625,16.125 C11.625,15.50625 11.11875,15 10.5,15 Z" id="形状"></path>
                    </g>
                </g>
            </g>
        </g>
    </g>
</svg>