<?xml version="1.0" encoding="UTF-8"?>
<svg width="40px" height="40px" viewBox="0 0 40 40" version="1.1" xmlns="http://www.w3.org/2000/svg" xmlns:xlink="http://www.w3.org/1999/xlink">
    <!-- Generator: Sketch 63 (92445) - https://sketch.com -->
    <title>-mockplus-</title>
    <desc>Created with Sketch.</desc>
    <g id="Dashboard" stroke="none" stroke-width="1" fill="none" fill-rule="evenodd">
        <g id="图标" transform="translate(-69.000000, -49.000000)" fill-rule="nonzero">
            <g id="-mockplus-" transform="translate(69.000000, 49.000000)">
                <g id="icon-/40-/--inform">
                    <g id="编组">
                        <rect id="bg" fill-opacity="0" fill="#FFFFFF" x="0" y="0" width="40" height="40"></rect>
                        <path d="M20,11.8749673 C24.9094445,11.8749673 28.8888889,15.9936455 28.8888889,21.0748628 L28.8888889,27.3997909 L29.1666667,27.3997909 C29.626904,27.3997909 30,27.7859409 30,28.2622811 C30,28.7386213 29.626904,29.1247713 29.1666667,29.1247713 L24.1211111,29.1253463 C23.4413632,30.8628908 21.8112004,32 20,32 C18.1887996,32 16.5586368,30.8628908 15.8788889,29.1253463 L10.8333333,29.1247713 C10.373096,29.1247713 10,28.7386213 10,28.2622811 C10,27.7859409 10.373096,27.3997909 10.8333333,27.3997909 L11.1111111,27.3997909 L11.1111111,21.0748628 C11.1111111,15.9936455 15.0905556,11.8749673 20,11.8749673 Z M22.2222222,29.1253463 L17.7777778,29.1253463 C18.3020282,29.8496352 19.1256068,30.2756192 20,30.2747595 C20.8743932,30.2756192 21.6979718,29.8496352 22.2222222,29.1253463 L22.2222222,29.1253463 Z M20,13.5999477 C16.0683333,13.5999477 12.8705555,16.8515358 12.78,20.8983398 L12.7777778,21.0748628 L12.7777778,27.3997909 L27.2222222,27.3997909 L27.2222222,21.0748628 C27.2222222,16.9464097 23.9888889,13.5999477 20,13.5999477 L20,13.5999477 Z M20.8833333,16.48354 C20.965692,16.2712583 21.1261584,16.1015348 21.329429,16.0117097 C21.5326996,15.9218846 21.7621221,15.9193165 21.9672222,16.0045704 C23.9675071,16.8365059 25.2780604,18.8436882 25.2777778,21.0748628 C25.2777778,21.5512029 24.9046817,21.937353 24.4444445,21.937353 C23.9842072,21.937353 23.6111111,21.5512029 23.6111111,21.0748628 C23.611279,19.5480561 22.7143988,18.1745585 21.3455555,17.6053522 C20.918662,17.4276211 20.7117409,16.925424 20.8833333,16.48354 L20.8833333,16.48354 Z M21.7361111,9 C22.3116667,9 22.7777778,9.38639561 22.7777778,9.8624902 C22.7777778,10.3385848 22.3111111,10.7249804 21.7361111,10.7249804 L18.2638889,10.7249804 C17.6883333,10.7249804 17.2222222,10.3385848 17.2222222,9.8624902 C17.2222222,9.38639561 17.6888889,9 18.2638889,9 L21.7361111,9 Z" id="形状" fill="#9090A8"></path>
                    </g>
                </g>
            </g>
        </g>
    </g>
</svg>