<?xml version="1.0" encoding="UTF-8"?>
<svg width="21px" height="21px" viewBox="0 0 21 21" version="1.1" xmlns="http://www.w3.org/2000/svg" xmlns:xlink="http://www.w3.org/1999/xlink">
    <!-- Generator: Sketch 63 (92445) - https://sketch.com -->
    <title>-mockplus-</title>
    <desc>Created with Sketch.</desc>
    <g id="Dashboard" stroke="none" stroke-width="1" fill="none" fill-rule="evenodd">
        <g id="图标" transform="translate(-218.000000, -304.000000)" fill-rule="nonzero">
            <g id="-mockplus-" transform="translate(218.000000, 304.000000)">
                <g id="icon-/-21-/-yzm">
                    <rect id="矩形_19" fill="#F8FAFE" opacity="0" x="0" y="0" width="21.0204762" height="21.0204762"></rect>
                    <path d="M19,5.33516064 C18.9396731,4.78055274 18.5031449,4.32618054 17.9204941,4.21152749 C16.7392903,4.03765133 15.5726141,3.78618042 14.4291058,3.45897713 C13.3092933,3.02897568 12.2592793,2.45431369 11.3096294,1.75171937 C10.8116508,1.41609354 10.140289,1.41609354 9.64231037,1.75171937 C8.74334866,2.5302126 7.66923761,3.10985216 6.49917363,3.44790003 C5.41575794,3.86734997 4.27126324,4.13222536 3.10390571,4.23368169 C2.5084732,4.32376899 2.0625221,4.79309262 2.03622999,5.35731484 C2.03622999,5.35731484 2,8.17712866 2,10.659091 C2,15.1522389 7.66223034,19.5 10.4940849,19.5 C13.3252001,19.5 18.1245651,16.4330284 18.8920494,10.7269382 C19.0842902,7.35673107 18.9512004,5.34623774 18.9512004,5.34623774 L19,5.33446833 L19,5.33516064 Z M15.9167537,8.80575398 L10.0016527,14.0292981 C9.73547321,14.2667634 9.32881002,14.3041486 9.01826722,14.1192995 L8.86299582,13.9953745 L5.5993389,10.8169396 C5.29450376,10.5068481 5.31585552,10.0240829 5.6470294,9.73865335 C5.97820328,9.45322383 6.49379047,9.47321635 6.79862561,9.7833079 L9.48629958,12.4231189 L14.8128479,7.70496735 C15.027212,7.52032681 15.3304941,7.45679356 15.6084509,7.53829995 C15.8864077,7.61980634 16.096811,7.83396962 16.1604038,8.10011654 C16.2239966,8.36626346 16.1311177,8.64395997 15.9167537,8.8286005 L15.9167537,8.80575398 L15.9167537,8.80575398 Z" id="形状" fill="#D9D9D9"></path>
                </g>
            </g>
        </g>
    </g>
</svg>