<?xml version="1.0" encoding="UTF-8"?>
<svg width="21px" height="21px" viewBox="0 0 21 21" version="1.1" xmlns="http://www.w3.org/2000/svg" xmlns:xlink="http://www.w3.org/1999/xlink">
    <!-- Generator: Sketch 63 (92445) - https://sketch.com -->
    <title>-mockplus-</title>
    <desc>Created with Sketch.</desc>
    <g id="Dashboard" stroke="none" stroke-width="1" fill="none" fill-rule="evenodd">
        <g id="登陆页35" transform="translate(-1193.000000, -366.000000)" fill-rule="nonzero">
            <g id="编组-9" transform="translate(865.000000, 166.000000)">
                <g id="编组-10">
                    <g id="登陆页面">
                        <g id="-mockplus-" transform="translate(328.000000, 200.000000)">
                            <g id="icon-/-21-/-eye1">
                                <rect id="矩形_26" fill="#F8FAFE" opacity="0" x="0" y="0" width="21.0204762" height="21.0204762"></rect>
                                <g id="编组" transform="translate(1.000000, 6.000000)" fill="#D9D9D9">
                                    <path d="M17.3393616,0.351923211 C14.7750835,3.55925075 12.212947,5.11539555 9.64733044,5.11539555 C7.07180905,5.11539555 4.40366419,3.54848158 1.64717902,0.327692582 C1.42883463,0.0725102408 1.09171225,-0.0461362845 0.762802631,0.016446005 C0.433893012,0.0790282945 0.163165347,0.31333166 0.0526001275,0.63109629 C-0.0579650918,0.94886092 0.00842962262,1.30181081 0.226774024,1.55699314 C3.30744134,5.15658762 6.44646677,7 9.64706273,7 C12.8583666,7 15.9109256,5.14608769 18.7996535,1.53276251 C19.1169288,1.12679742 19.050246,0.539643003 18.6501194,0.216087703 C18.2499928,-0.107467598 17.665477,-0.0468934779 17.3393616,0.351923211 L17.3393616,0.351923211 Z" id="路径"></path>
                                    <path d="M2.99362436,4.01370122 L1.16680069,6.03673471 C1.00674352,6.21395808 0.957630045,6.45944548 1.03796083,6.6807242 C1.11829162,6.90200291 1.31586251,7.06545544 1.55625047,7.10951079 C1.79663842,7.15356614 2.04332279,7.07153127 2.20337995,6.8943079 L4.03020361,4.87127441 C4.27763053,4.59731083 4.24616352,4.18324518 3.95992008,3.94643289 C3.67367663,3.7096206 3.24105131,3.73973765 2.99362436,4.01370122 L2.99362436,4.01370122 Z M6.68344099,6.38763164 L5.95265671,9.18510354 C5.86087419,9.53641132 6.08402617,9.89241503 6.45108063,9.98026008 C6.81813508,10.0681051 7.19009595,9.8545264 7.28187849,9.50321862 L8.01266277,6.7057467 C8.07203565,6.47849041 8.00022434,6.23818075 7.82427946,6.07534003 C7.64833457,5.91249932 7.39498633,5.85186693 7.15966857,5.91628251 C6.9243508,5.98069808 6.74281387,6.16037535 6.68344099,6.38763164 L6.68344099,6.38763164 Z M11.9879977,6.50197473 L13.0155346,9.29918439 C13.1463526,9.63339247 13.53244,9.80606655 13.8842215,9.68769674 C14.236003,9.56932692 14.4242466,9.20339804 14.307765,8.86436592 L13.2802281,6.06715627 C13.1494101,5.73294819 12.7633227,5.56027411 12.4115412,5.67864392 C12.0597597,5.79701374 11.8715161,6.16294262 11.9879977,6.50197473 L11.9879977,6.50197473 Z M15.7167237,4.11912764 L17.8304357,6.1424234 C18.0979897,6.39849931 18.5317805,6.3984993 18.7993345,6.14242338 C19.0668885,5.88634746 19.0668885,5.47116637 18.7993345,5.21509044 L16.6856225,3.19205695 C16.4180685,2.93598102 15.9842777,2.93598102 15.7167237,3.19205695 C15.4491697,3.44813287 15.4491697,3.86331398 15.7167237,4.11938991 L15.7167237,4.11912764 Z" id="形状"></path>
                                </g>
                            </g>
                        </g>
                    </g>
                </g>
            </g>
        </g>
    </g>
</svg>