<?xml version="1.0" encoding="UTF-8"?>
<svg width="21px" height="21px" viewBox="0 0 21 21" version="1.1" xmlns="http://www.w3.org/2000/svg" xmlns:xlink="http://www.w3.org/1999/xlink">
    <!-- Generator: Sketch 63 (92445) - https://sketch.com -->
    <title>-mockplus-</title>
    <desc>Created with Sketch.</desc>
    <g id="Dashboard" stroke="none" stroke-width="1" fill="none" fill-rule="evenodd">
        <g id="图标" transform="translate(-58.000000, -304.000000)" fill-rule="nonzero">
            <g id="-mockplus-" transform="translate(58.000000, 304.000000)">
                <g id="icon-/-21-/-eye2">
                    <rect id="矩形_26" fill="#F8FAFE" opacity="0" x="0" y="0" width="21.0204762" height="21.0204762"></rect>
                    <path d="M10.494373,4 C15.8839944,4 18.8288391,8.28848473 19.8150843,9.90362832 C20.0401546,10.2760454 20.061083,10.7375613 19.8706474,11.1289097 C18.1219757,14.7517542 14.4451066,17.0382406 10.4302022,16.9995157 C6.41529778,16.9607909 2.78300506,14.6038056 1.10420774,10.9479022 C0.965264086,10.6671895 0.965264086,10.3375012 1.10420774,10.0567885 C2.86091487,6.4391456 6.48177503,4.10363992 10.494373,4 Z M10.494373,5.67083821 C7.83230546,5.67083821 5.67427337,7.83397764 5.67427337,10.5023453 C5.67427337,13.170713 7.83230546,15.3338525 10.494373,15.3338525 C13.1532737,15.3262048 15.3068429,13.1675389 15.3144725,10.5023453 C15.3144725,7.83397764 13.1564404,5.67083821 10.494373,5.67083821 Z M10.5,8 C11.8807119,8 13,9.11928813 13,10.5 C13,11.8807119 11.8807119,13 10.5,13 C9.11928813,13 8,11.8807119 8,10.5 C8,9.11928813 9.11928813,8 10.5,8 Z" id="形状结合" fill="#D9D9D9"></path>
                </g>
            </g>
        </g>
    </g>
</svg>