<?xml version="1.0" encoding="UTF-8"?>
<svg width="315px" height="154px" viewBox="0 0 315 154" version="1.1" xmlns="http://www.w3.org/2000/svg" xmlns:xlink="http://www.w3.org/1999/xlink">
    <!-- Generator: Sketch 63 (92445) - https://sketch.com -->
    <title>gszx_bg</title>
    <desc>Created with Sketch.</desc>
    <defs>
        <path d="M8,0 L307,0 C311.418278,-8.11624501e-16 315,3.581722 315,8 L315,154 L315,154 L0,154 L0,8 C-5.41083001e-16,3.581722 3.581722,8.11624501e-16 8,0 Z" id="path-1"></path>
    </defs>
    <g id="Dashboard" stroke="none" stroke-width="1" fill="none" fill-rule="evenodd">
        <g id="云界生态管理平台-个人页面" transform="translate(-69.000000, -538.000000)">
            <g id="个人页面-2" transform="translate(69.000000, 538.000000)">
                <g id="个人页面">
                    <g id="gszx_bg">
                        <mask id="mask-2" fill="white">
                            <use xlink:href="#path-1"></use>
                        </mask>
                        <use id="矩形" fill="#703BEB" xlink:href="#path-1"></use>
                        <g id="编组-15" mask="url(#mask-2)" fill="#FFFFFF">
                            <g transform="translate(-174.000000, 97.000000)" id="路径-9">
                                <path d="M172.136493,-1.42108547e-14 C212.577593,30.292153 254.994484,45.4382295 299.387165,45.4382295 C365.976188,45.4382295 399.270699,7.65626762 479.290129,7.65626762 C532.636415,7.65626762 580.873038,23.4622169 624,55.0741153 L617.535374,92.0001228 L300.449756,109.43823 L157,92.0001228 L172.136493,-1.42108547e-14 Z" opacity="0.0750459559"></path>
                                <path d="M107.244894,3 C145.303854,33.292153 185.222222,48.4382295 227,48.4382295 C289.666667,48.4382295 321,10.6562676 396.305969,10.6562676 C446.509949,10.6562676 491.905245,26.4622169 532.491859,58.0741153 L526.408024,95.0001228 L228,112.43823 L93,95.0001228 L107.244894,3 Z" opacity="0.197817096"></path>
                                <path d="M96.2448943,30.4382295 C134.303854,46.7692414 174.222222,54.9347474 216,54.9347474 C278.666667,54.9347474 310,34.5658528 385.305969,34.5658528 C435.509949,34.5658528 480.905245,43.0871073 521.491859,60.1296163 L515.408024,80.0370513 L217,89.4382295 L82,80.0370513 L96.2448943,30.4382295 Z" transform="translate(301.745929, 59.938230) scale(-1, 1) translate(-301.745929, -59.938230) "></path>
                                <path d="M14.2448943,3 C52.3038537,33.292153 92.2222222,48.4382295 134,48.4382295 C196.666667,48.4382295 228,10.6562676 303.305969,10.6562676 C353.509949,10.6562676 398.905245,26.4622169 439.491859,58.0741153 L433.408024,95.0001228 L135,112.43823 L0,95.0001228 L14.2448943,3 Z" opacity="0.145013787"></path>
                            </g>
                        </g>
                    </g>
                </g>
            </g>
        </g>
    </g>
</svg>