<?xml version="1.0" encoding="UTF-8"?>
<svg width="21px" height="21px" viewBox="0 0 21 21" version="1.1" xmlns="http://www.w3.org/2000/svg" xmlns:xlink="http://www.w3.org/1999/xlink">
    <!-- Generator: Sketch 63 (92445) - https://sketch.com -->
    <title>-mockplus-</title>
    <desc>Created with Sketch.</desc>
    <g id="Dashboard" stroke="none" stroke-width="1" fill="none" fill-rule="evenodd">
        <g id="登陆页35" transform="translate(-877.000000, -366.000000)" fill-rule="nonzero">
            <g id="编组-9" transform="translate(865.000000, 166.000000)">
                <g id="编组-10">
                    <g id="登陆页面">
                        <g id="编组-2" transform="translate(0.000000, 184.000000)">
                            <g id="-mockplus-" transform="translate(12.000000, 16.000000)">
                                <g id="icon-/-21-/-key">
                                    <rect id="矩形_30" fill="#F8FAFE" opacity="0" x="0" y="0" width="21.0204762" height="21.0204762"></rect>
                                    <g id="编组" transform="translate(10.500000, 11.000000) scale(-1, 1) translate(-10.500000, -11.000000) translate(3.000000, 2.000000)" fill="#D9D9D9">
                                        <path d="M7.5442801,2.06855321 C9.28870998,2.06855321 10.7262685,3.34595456 10.9445797,5 L13,5 C12.7569743,2.20007971 10.388504,0 7.49897023,0 C4.60943644,0 2.24302565,2.20007971 2,5 L4.14604007,5 C4.36023217,3.34595456 5.79985022,2.06855321 7.5442801,2.06855321 Z M12.7152183,6 L2.28274174,6 C1.02203182,6 0,7.02962836 0,8.29970885 L0,15.7002911 C0,16.9703716 1.02203182,18 2.28274174,18 L12.7172583,18 C13.9800082,18 15,16.9703716 15,15.7002911 L15,8.301764 C15,7.03168351 13.9759282,6 12.7152183,6 Z M8.56417489,11.3976957 L8.56417489,13.0127135 C8.56417489,13.5589988 8.09238364,14 7.51269394,14 C6.93088858,14 6.46121298,13.5570123 6.46121298,13.0127135 L6.46121298,11.4215336 C6.17771509,11.1652761 6,10.8077076 6,10.4084227 C6,9.63170441 6.67277856,9 7.5,9 C8.32722144,9 9,9.63170441 9,10.4084227 C8.99576869,10.7938021 8.83074753,11.1434247 8.56417489,11.3976957 L8.56417489,11.3976957 Z" id="形状"></path>
                                    </g>
                                </g>
                            </g>
                        </g>
                    </g>
                </g>
            </g>
        </g>
    </g>
</svg>