<?xml version="1.0" encoding="UTF-8"?>
<svg width="40px" height="40px" viewBox="0 0 40 40" version="1.1" xmlns="http://www.w3.org/2000/svg" xmlns:xlink="http://www.w3.org/1999/xlink">
    <!-- Generator: Sketch 63 (92445) - https://sketch.com -->
    <title>-mockplus-</title>
    <desc>Created with Sketch.</desc>
    <defs>
        <rect id="path-1" x="0" y="0" width="40" height="40" rx="4"></rect>
    </defs>
    <g id="Dashboard" stroke="none" stroke-width="1" fill="none" fill-rule="evenodd">
        <g id="图标" transform="translate(-419.000000, -103.000000)">
            <g id="-mockplus-" transform="translate(419.000000, 103.000000)">
                <g id="icon-/40-/--colour_pr">
                    <g id="bg" fill-rule="nonzero">
                        <use fill-opacity="0" fill="#FFFFFF" xlink:href="#path-1"></use>
                        <use fill-opacity="0.1" fill="#7D67F3" xlink:href="#path-1"></use>
                    </g>
                    <g id="编组" transform="translate(8.000000, 8.000000)" fill="#602BDA">
                        <path d="M19.4953312,3.53274727 C20.2142234,4.12447348 20.8593257,4.79098434 21.4347999,5.5188611 C22.2470274,6.54619026 22.8846386,7.64580682 23.3688963,8.7507482 C23.5413301,9.14419425 23.6827839,9.512806 23.7964446,9.84980477 L23.8795331,10.1084096 C23.8909191,10.1468962 23.9017747,10.1854749 23.9131507,10.2277445 L23.9498913,10.369225 L23.9475119,10.3895427 C24.4384674,13.1130673 24.0373599,15.1364673 22.7304276,16.4458382 C21.8462831,17.3158598 20.6549114,17.7458302 19.2867856,17.8372933 C18.4131983,17.8956951 17.6236888,17.8134784 17.0333108,17.6865315 C16.5000597,17.6239481 16.107653,17.7777878 15.8107983,18.1455563 C15.5226322,18.5180119 15.4235458,19.049879 15.5358353,19.3936188 C15.868205,20.4130847 15.9154353,21.1972354 15.6679203,21.8052143 C14.9680823,23.3562098 13.5442324,24.15 11.453376,24.15 C11.0773489,24.15 10.676602,24.1229181 10.189065,24.0673361 L9.88563134,24.0305555 L9.74971289,24.0074257 C8.0956992,23.7496782 6.54533059,22.9139351 5.12894265,21.6830877 C4.12423574,20.809993 3.44630983,20.0023048 2.94547011,19.2866275 C-0.525549898,13.8912812 0.506435616,7.80425281 4.65016534,3.98453076 C8.77238447,0.160001651 14.7330569,-0.377784408 19.4953312,3.53274727 Z M6.20233252,4.86346761 L5.98413932,5.04985778 L5.77369773,5.23913234 L5.57780815,5.42587216 C2.28699528,8.63882126 1.36985545,13.4634828 4.1748237,18.0737581 L4.34759911,18.3501027 L4.308,18.375 L4.86569954,19.0000719 C5.23053376,19.4019648 5.69194883,19.8933124 6.08930239,20.2556708 L6.20135305,20.3558558 C7.31405701,21.3295265 8.49607173,22.0026506 9.72139164,22.2516507 L10.1410777,22.3246953 C12.3162969,22.6673417 13.6061245,22.2434469 14.112625,21.1099863 L14.1252335,21.0283386 C14.1542651,20.8394637 14.1257588,20.5365837 13.9922859,20.0725571 L13.9372207,19.8909013 C13.6235833,19.0026 13.8546347,17.8434263 14.4892055,17.0464998 C15.0999026,16.262285 15.9886384,15.8806485 17.063678,15.9437141 L17.2811428,15.9622691 L17.3018262,15.9777435 L17.6643899,16.0363691 L17.7442296,16.0475889 C18.4503134,16.1411001 19.189827,16.147801 19.8804938,16.0117853 C20.5616539,15.8776418 21.1294488,15.6131928 21.5498254,15.19817 C22.4125833,14.3403394 22.6724308,12.8304845 22.2957281,10.7410298 C22.1779593,10.3504742 22.0256126,9.92534617 21.7651041,9.34872274 C21.3528481,8.4362133 20.8264469,7.53249974 20.1722717,6.68860433 C19.6486636,6.01314245 19.061317,5.40128943 18.4054439,4.86677644 C14.5336853,1.64381167 9.72071766,1.93599927 6.20233252,4.86346761 Z" id="形状结合"></path>
                        <path d="M5,12.6500936 C5,13.3952569 5.60171387,14 6.34314455,14 C7.08457524,14 7.68628913,13.3952569 7.68628913,12.6500936 C7.68628913,11.9049303 7.08457526,11.3001872 6.34314455,11.3001872 C5.59985096,11.3001872 5,11.9049303 5,12.6500936 Z M6.5666915,8.60037446 C6.5666915,9.34553777 7.16840537,9.95028084 7.90983607,9.95028084 C8.65126678,9.95028084 9.25298063,9.34553775 9.25298063,8.60037446 C9.25298063,7.85521117 8.65126676,7.25046805 7.90983607,7.25046805 C7.16840539,7.25046805 6.5666915,7.85521115 6.5666915,8.60037446 Z M10.5961252,6.34990638 C10.5961252,7.09506969 11.197839,7.69981276 11.9392698,7.69981276 C12.6807005,7.69981276 13.2824143,7.09506967 13.2824143,6.34990638 C13.2824143,5.60474309 12.6807004,5 11.9392698,5 C11.1978391,5 10.5961252,5.60474309 10.5961252,6.34990638 Z M15.0745157,7.47514041 C15.0745157,8.22030372 15.6762295,8.82504681 16.4176602,8.82504681 C17.1590909,8.82504681 17.7608048,8.22030372 17.7608048,7.47514041 C17.7608048,6.7299771 17.1590909,6.12523403 16.4176602,6.12523403 C15.6762295,6.12523403 15.0745157,6.72997712 15.0745157,7.47514041 Z M17.3137109,11.0755149 C17.3137109,11.8206782 17.9154247,12.4254213 18.6568554,12.4254213 C19.3982862,12.4254213 20,11.8206782 20,11.0755149 C20,10.3303516 19.3982861,9.72560848 18.6568554,9.72560848 C17.9154248,9.72560848 17.3137109,10.3303516 17.3137109,11.0755149 L17.3137109,11.0755149 Z" id="形状"></path>
                    </g>
                </g>
            </g>
        </g>
    </g>
</svg>