<?xml version="1.0" encoding="UTF-8"?>
<svg width="21px" height="21px" viewBox="0 0 21 21" version="1.1" xmlns="http://www.w3.org/2000/svg" xmlns:xlink="http://www.w3.org/1999/xlink">
    <!-- Generator: Sketch 63 (92445) - https://sketch.com -->
    <title>-mockplus-</title>
    <desc>Created with Sketch.</desc>
    <g id="Dashboard" stroke="none" stroke-width="1" fill="none" fill-rule="evenodd">
        <g id="登陆页35" transform="translate(-877.000000, -294.000000)" fill-rule="nonzero">
            <g id="编组-9" transform="translate(865.000000, 166.000000)">
                <g id="编组-10">
                    <g id="登陆页面">
                        <g id="编组" transform="translate(0.000000, 112.000000)">
                            <g id="-mockplus-" transform="translate(12.000000, 16.000000)">
                                <g id="icon-/-21-/-me">
                                    <rect id="矩形_26" fill="#F8FAFE" opacity="0" x="0" y="0" width="21.0204762" height="21.0204762"></rect>
                                    <path d="M4.40625,7 C4.40625,3.68615385 7.09240385,1 10.40625,1 C13.7200962,1 16.40625,3.68615385 16.40625,7 C16.40625,10.3138462 13.7200962,13 10.40625,13 C7.09240385,13 4.40625,10.3138462 4.40625,7 Z M3,17.15 C3,15.5759885 4.25919914,14.3 5.8125,14.3 L15.1875,14.3 C16.7408009,14.3 18,15.5759885 18,17.15 C18,18.7240115 16.7408009,20 15.1875,20 L5.8125,20 C4.2590625,20 3,18.720825 3,17.15 Z" id="形状" fill="#D9D9D9"></path>
                                </g>
                            </g>
                        </g>
                    </g>
                </g>
            </g>
        </g>
    </g>
</svg>