<?xml version="1.0" encoding="UTF-8"?>
<svg width="48px" height="37px" viewBox="0 0 48 37" version="1.1" xmlns="http://www.w3.org/2000/svg" xmlns:xlink="http://www.w3.org/1999/xlink">
    <!-- Generator: Sketch 63 (92445) - https://sketch.com -->
    <title>sheshu_logo_zs</title>
    <desc>Created with Sketch.</desc>
    <defs>
        <path d="M0.0961594684,2.81621262 C2.24292359,5.04159468 4.61517608,7.04786711 7.17719601,8.79707641 L7.17719601,8.79707641 C8.37783389,7.41352824 9.41437874,5.88358804 10.2563721,4.23755482 L10.2563721,4.23755482 C8.46633887,3.01395349 6.78171429,1.64746844 5.21860465,0.155003322 L5.21860465,0.155003322 C3.57671761,1.14705648 1.86578073,2.03593355 0.0961594684,2.81621262" id="path-1"></path>
        <linearGradient x1="28.647983%" y1="37.1588042%" x2="100.000183%" y2="50.0002502%" id="linearGradient-3">
            <stop stop-color="#5858FF" offset="0%"></stop>
            <stop stop-color="#8E63F2" offset="100%"></stop>
        </linearGradient>
        <path d="M41.9499269,3.89804651 L41.9494485,3.88257807 C34.6700332,12.2707774 23.936691,17.5802791 11.9585382,17.5802791 L11.9585382,17.5802791 C8.89307641,17.5802791 5.90974086,17.2300864 3.04393355,16.5719601 L3.04393355,16.5719601 L0.0685714286,18.818392 C0.681568106,19.9453555 1.38689701,21.0150698 2.17483056,22.016691 L2.17483056,22.016691 C5.32560797,22.7121329 8.59869767,23.0816213 11.9585382,23.0816213 L11.9585382,23.0816213 C23.7458073,23.0816213 34.4769169,18.5673887 42.5240133,11.1768239 L42.5240133,11.1768239 C41.9401993,15.7377807 40.2383522,19.3494219 37.3672824,22.6520133 L37.3672824,22.6520133 C38.622299,23.5094751 39.9218073,24.3066578 41.2634153,25.0365449 L41.2634153,25.0365449 C45.1593887,20.3196279 47.2689967,14.7980332 47.2689967,8.20225914 L47.2689967,8.20225914 C47.2689967,5.36005316 46.8331694,2.61990698 46.0264186,0.0435348837 L46.0264186,0.0435348837 C45.291588,0.540438538 44.4232824,1.33778073 41.9499269,3.89804651" id="path-4"></path>
        <linearGradient x1="-0.000219300913%" y1="50.0001445%" x2="100.000036%" y2="50.0001445%" id="linearGradient-6">
            <stop stop-color="#5858FF" offset="0%"></stop>
            <stop stop-color="#8F64F2" offset="100%"></stop>
        </linearGradient>
        <path d="M18.1194419,0.1409701 C17.6874419,12.3726777 10.5784983,23.0677475 0,29.3064718 L0,29.3064718 C0.769275748,30.8397608 1.73836545,32.2725847 2.87665116,33.5778339 L2.87665116,33.5778339 C15.0196944,26.4623522 23.1752292,14.1990698 23.6228571,0.176212625 L23.6228571,0.176212625 C22.6674817,0.064744186 21.6937674,0.0070166113 20.7050631,0.0070166113 L20.7050631,0.0070166113 C19.8305382,0.0070166113 18.9682924,0.0537408638 18.1194419,0.1409701" id="path-7"></path>
        <linearGradient x1="38.7221343%" y1="50%" x2="74.7577855%" y2="50.0002491%" id="linearGradient-9">
            <stop stop-color="#8E63F2" offset="0%"></stop>
            <stop stop-color="#4848FF" offset="100%"></stop>
        </linearGradient>
        <path d="M2.68289701,0.0602790698 C1.8179402,0.0602790698 0.964624585,0.105727575 0.124863787,0.191202658 L0.124863787,0.191202658 C0.124704319,0.238086379 0.122790698,0.284491694 0.122790698,0.331534884 L0.122790698,0.331534884 C0.122790698,9.5338206 3.44356146,18.0293422 9.05238538,24.8823389 L9.05238538,24.8823389 C10.8090897,24.2556279 12.5045581,23.5187243 14.1289037,22.6800797 L14.1289037,22.6800797 C8.80313621,16.5306578 5.62413289,8.7693289 5.62413289,0.331534884 L5.62413289,0.331534884 C5.62413289,0.298365449 5.62556811,0.26551495 5.62556811,0.232345515 L5.62556811,0.232345515 C4.66221927,0.119122924 3.68021262,0.0602790698 2.68289701,0.0602790698 Z" id="path-10"></path>
        <linearGradient x1="34.0805774%" y1="49.9996016%" x2="61.871608%" y2="61.5030662%" id="linearGradient-12">
            <stop stop-color="#8F64F2" offset="0%"></stop>
            <stop stop-color="#5858FF" offset="100%"></stop>
        </linearGradient>
    </defs>
    <g id="Dashboard" stroke="none" stroke-width="1" fill="none" fill-rule="evenodd">
        <g id="登陆页35" transform="translate(-907.000000, -173.000000)">
            <g id="编组-9" transform="translate(865.000000, 166.000000)">
                <g id="编组-10">
                    <g id="登陆页面">
                        <g id="编组-6" transform="translate(40.000000, 0.000000)">
                            <g id="-mockplus-">
                                <g id="yunjie_logo_zs">
                                    <g id="sheshu_logo_zs">
                                        <rect id="矩形" fill-opacity="0" fill="#FFFFFF" x="0" y="0" width="52" height="52"></rect>
                                        <g id="编组" transform="translate(2.000000, 7.000000)">
                                            <g transform="translate(29.182724, 24.657488)">
                                                <mask id="mask-2" fill="white">
                                                    <use xlink:href="#path-1"></use>
                                                </mask>
                                                <g id="Clip-2"></g>
                                                <path d="M0.0961594684,2.81621262 C2.24292359,5.04159468 4.61517608,7.04786711 7.17719601,8.79707641 L7.17719601,8.79707641 C8.37783389,7.41352824 9.41437874,5.88358804 10.2563721,4.23755482 L10.2563721,4.23755482 C8.46633887,3.01395349 6.78171429,1.64746844 5.21860465,0.155003322 L5.21860465,0.155003322 C3.57671761,1.14705648 1.86578073,2.03593355 0.0961594684,2.81621262" id="Fill-1" fill="url(#linearGradient-3)" mask="url(#mask-2)"></path>
                                            </g>
                                            <g transform="translate(0.637874, 11.740545)">
                                                <mask id="mask-5" fill="white">
                                                    <use xlink:href="#path-4"></use>
                                                </mask>
                                                <g id="Clip-4"></g>
                                                <path d="M41.9499269,3.89804651 L41.9494485,3.88257807 C34.6700332,12.2707774 23.936691,17.5802791 11.9585382,17.5802791 L11.9585382,17.5802791 C8.89307641,17.5802791 5.90974086,17.2300864 3.04393355,16.5719601 L3.04393355,16.5719601 L0.0685714286,18.818392 C0.681568106,19.9453555 1.38689701,21.0150698 2.17483056,22.016691 L2.17483056,22.016691 C5.32560797,22.7121329 8.59869767,23.0816213 11.9585382,23.0816213 L11.9585382,23.0816213 C23.7458073,23.0816213 34.4769169,18.5673887 42.5240133,11.1768239 L42.5240133,11.1768239 C41.9401993,15.7377807 40.2383522,19.3494219 37.3672824,22.6520133 L37.3672824,22.6520133 C38.622299,23.5094751 39.9218073,24.3066578 41.2634153,25.0365449 L41.2634153,25.0365449 C45.1593887,20.3196279 47.2689967,14.7980332 47.2689967,8.20225914 L47.2689967,8.20225914 C47.2689967,5.36005316 46.8331694,2.61990698 46.0264186,0.0435348837 L46.0264186,0.0435348837 C45.291588,0.540438538 44.4232824,1.33778073 41.9499269,3.89804651" id="Fill-3" fill="url(#linearGradient-6)" mask="url(#mask-5)"></path>
                                            </g>
                                            <g transform="translate(0.000000, 0.258817)">
                                                <mask id="mask-8" fill="white">
                                                    <use xlink:href="#path-7"></use>
                                                </mask>
                                                <g id="Clip-6"></g>
                                                <path d="M18.1194419,0.1409701 C17.6874419,12.3726777 10.5784983,23.0677475 0,29.3064718 L0,29.3064718 C0.769275748,30.8397608 1.73836545,32.2725847 2.87665116,33.5778339 L2.87665116,33.5778339 C15.0196944,26.4623522 23.1752292,14.1990698 23.6228571,0.176212625 L23.6228571,0.176212625 C22.6674817,0.064744186 21.6937674,0.0070166113 20.7050631,0.0070166113 L20.7050631,0.0070166113 C19.8305382,0.0070166113 18.9682924,0.0537408638 18.1194419,0.1409701" id="Fill-5" fill="url(#linearGradient-9)" mask="url(#mask-8)"></path>
                                            </g>
                                            <g transform="translate(18.019934, 0.099349)">
                                                <mask id="mask-11" fill="white">
                                                    <use xlink:href="#path-10"></use>
                                                </mask>
                                                <g id="Clip-8"></g>
                                                <path d="M2.68289701,0.0602790698 C1.8179402,0.0602790698 0.964624585,0.105727575 0.124863787,0.191202658 C0.124704319,0.238086379 0.122790698,0.284491694 0.122790698,0.331534884 C0.122790698,9.5338206 3.44356146,18.0293422 9.05238538,24.8823389 C10.8090897,24.2556279 12.5045581,23.5187243 14.1289037,22.6800797 C8.80313621,16.5306578 5.62413289,8.7693289 5.62413289,0.331534884 C5.62413289,0.298365449 5.62556811,0.26551495 5.62556811,0.232345515 C4.66221927,0.119122924 3.68021262,0.0602790698 2.68289701,0.0602790698 Z" id="Fill-7" fill="url(#linearGradient-12)" mask="url(#mask-11)"></path>
                                            </g>
                                        </g>
                                    </g>
                                </g>
                            </g>
                        </g>
                    </g>
                </g>
            </g>
        </g>
    </g>
</svg>